<svg id="logo" data-name="logo" xmlns="http://www.w3.org/2000/svg" viewBox="0 0 477.61 80.72"><defs><style>.cls-1{fill:#fff;}.cls-2{fill:#c80b19;}</style></defs><rect class="cls-1" y="0.92" width="78.83" height="78.83"/><polygon class="cls-2" points="23.58 79.75 68.57 79.75 61.73 61.97 30.04 61.97 23.58 79.75"/><polygon class="cls-2" points="34.96 48.61 56.59 48.61 45.67 19.2 34.96 48.61"/><polygon class="cls-2" points="37.31 0.92 0 0.92 0 79.75 6.61 79.75 37.31 0.92"/><polygon class="cls-2" points="78.83 61.92 78.83 0.92 54.41 0.92 78.83 61.92"/><path class="cls-1" d="M126.79,32V44.16H116.44V67.35a57.42,57.42,0,0,0,.3,8.21,3.3,3.3,0,0,0,1.34,1.92,4.27,4.27,0,0,0,2.57.76,19.65,19.65,0,0,0,6.09-1.46L128,88.59a30.09,30.09,0,0,1-12,2.27,18.89,18.89,0,0,1-7.38-1.38,10.79,10.79,0,0,1-4.83-3.57A14.37,14.37,0,0,1,101.72,80a74.85,74.85,0,0,1-.48-10.72V44.16h-7V32h7V20.59l15.2-8.88V32Z" transform="translate(-5.81 -10.14)"/><path class="cls-1" d="M151.81,89.56H136.66V32h14.07v8.18q3.61-5.8,6.5-7.64a11.87,11.87,0,0,1,6.55-1.84,19.09,19.09,0,0,1,10,2.87l-4.69,13.27a13.27,13.27,0,0,0-7.12-2.49,8.41,8.41,0,0,0-5.39,1.76c-1.47,1.17-2.63,3.3-3.48,6.36s-1.26,9.5-1.26,19.29Z" transform="translate(-5.81 -10.14)"/><path class="cls-1" d="M176.77,60a31.22,31.22,0,0,1,3.72-14.68A25.64,25.64,0,0,1,191,34.46a31.15,31.15,0,0,1,15.23-3.73q13,0,21.29,8.47t8.31,21.43q0,13.07-8.39,21.64t-21.1,8.59a33.17,33.17,0,0,1-15-3.57A24.49,24.49,0,0,1,180.49,76.8Q176.77,69.9,176.77,60Zm15.52.81q0,8.57,4.05,13.11a13.16,13.16,0,0,0,19.92,0q4-4.55,4-13.21,0-8.46-4-13a13.18,13.18,0,0,0-19.92,0Q192.29,52.24,192.29,60.79Z" transform="translate(-5.81 -10.14)"/><path class="cls-1" d="M247.77,10.14h29.17q9.87,0,15,1.51A26.45,26.45,0,0,1,303.89,19a34.57,34.57,0,0,1,7.55,12.87q2.6,7.6,2.59,18.77a52.32,52.32,0,0,1-2.43,16.9,34.87,34.87,0,0,1-8.46,14,28,28,0,0,1-11.21,6.34,48.09,48.09,0,0,1-14.13,1.68h-30Zm16,13.43V76.18h11.91a42.92,42.92,0,0,0,9.65-.76,14.76,14.76,0,0,0,6.45-3.3c1.7-1.56,3.1-4.11,4.18-7.67s1.61-8.41,1.61-14.55-.54-10.85-1.61-14.14a18.24,18.24,0,0,0-4.53-7.69A15.2,15.2,0,0,0,284,24.33q-3.35-.75-13.1-.76Z" transform="translate(-5.81 -10.14)"/><path class="cls-1" d="M398.83,89.56H381.47l-6.9-18H343l-6.52,18H319.53l30.78-79.42h16.88ZM369.45,58.14,358.56,28.67,347.89,58.14Z" transform="translate(-5.81 -10.14)"/><path class="cls-1" d="M407.08,89.56V10.14H431l14.34,54.18,14.18-54.18h23.93V89.56H468.6V27L452.91,89.56H437.54L421.91,27V89.56Z" transform="translate(-5.81 -10.14)"/></svg>