<svg id="logo" data-name="logo" xmlns="http://www.w3.org/2000/svg" viewBox="0 0 511.57 85.04"><defs><style>.cls-1{fill:#fff;}.cls-2{fill:#c80b19;}.cls-3{fill:#1d1d1b;}</style></defs><rect class="cls-1" width="85.04" height="85.04"/><polygon class="cls-2" points="25.44 85.04 73.96 85.04 66.59 65.85 32.41 65.85 25.44 85.04"/><polygon class="cls-2" points="37.72 51.45 61.05 51.45 49.27 19.72 37.72 51.45"/><polygon class="cls-2" points="40.25 0 0 0 0 85.04 7.13 85.04 40.25 0"/><polygon class="cls-2" points="85.04 65.81 85.04 0 58.69 0 85.04 65.81"/><path class="cls-3" d="M137.68,34.19V46.84h-10.9V71.26a60.8,60.8,0,0,0,.31,8.64,3.52,3.52,0,0,0,1.42,2,4.52,4.52,0,0,0,2.7.8,20.76,20.76,0,0,0,6.41-1.54L139,93.62a31.53,31.53,0,0,1-12.6,2.4,19.91,19.91,0,0,1-7.78-1.45,11.36,11.36,0,0,1-5.08-3.77,14.92,14.92,0,0,1-2.24-6.25,78.16,78.16,0,0,1-.51-11.29V46.84h-7.33V34.19h7.33V22l16-9.36V34.19Z" transform="translate(-7.89 -10.98)"/><path class="cls-3" d="M164.34,96H148.12V34.19h15.07v9Q167.06,37,170.14,35a12.73,12.73,0,0,1,7-2,20.54,20.54,0,0,1,10.68,3.08l-5,14.21a14.17,14.17,0,0,0-7.62-2.67,9,9,0,0,0-5.77,1.89c-1.58,1.25-2.82,3.53-3.72,6.81S164.34,66.51,164.34,77Z" transform="translate(-7.89 -10.98)"/><path class="cls-3" d="M191.07,63.62A32.83,32.83,0,0,1,195,48.21,26.91,26.91,0,0,1,206,36.84a32.75,32.75,0,0,1,16-3.92q13.63,0,22.34,8.9t8.72,22.48q0,13.7-8.8,22.71t-22.15,9a34.77,34.77,0,0,1-15.75-3.75,25.65,25.65,0,0,1-11.4-11Q191.07,74,191.07,63.62Zm16.29.85q0,9,4.24,13.76a13.83,13.83,0,0,0,20.9,0q4.22-4.78,4.22-13.87c0-5.92-1.41-10.46-4.22-13.65a13.83,13.83,0,0,0-20.9,0Q207.36,55.5,207.36,64.47Z" transform="translate(-7.89 -10.98)"/><path class="cls-3" d="M267.15,11h31.23q10.56,0,16.1,1.62a28.28,28.28,0,0,1,12.76,7.84,37.22,37.22,0,0,1,8.08,13.77q2.78,8.16,2.77,20.1a55.9,55.9,0,0,1-2.6,18.1,37.41,37.41,0,0,1-9.06,15,29.9,29.9,0,0,1-12,6.78Q308.76,96,299.3,96H267.15Zm17.09,14.39V81.69H297a46.39,46.39,0,0,0,10.33-.81,15.79,15.79,0,0,0,6.9-3.54q2.75-2.49,4.48-8.21t1.73-15.57q0-9.87-1.73-15.14a19.51,19.51,0,0,0-4.85-8.24,16.23,16.23,0,0,0-7.91-4q-3.58-.81-14-.81Z" transform="translate(-7.89 -10.98)"/><path class="cls-3" d="M428.89,96H410.3L402.92,76.7H369.09L362.1,96H344l33-85H395ZM397.43,62.38,385.77,30.82,374.34,62.38Z" transform="translate(-7.89 -10.98)"/><path class="cls-3" d="M437.72,96V11h25.57l15.36,58,15.18-58h25.63V96H503.59V29.08L486.79,96H470.34L453.6,29.08V96Z" transform="translate(-7.89 -10.98)"/></svg>