<?xml version="1.0" encoding="utf-8"?>
<!-- Generator: Adobe Illustrator 24.2.1, SVG Export Plug-In . SVG Version: 6.00 Build 0)  -->
<svg version="1.1" id="logo" xmlns="http://www.w3.org/2000/svg" xmlns:xlink="http://www.w3.org/1999/xlink" x="0px" y="0px"
	 viewBox="0 0 511.6 85" style="enable-background:new 0 0 511.6 85;" xml:space="preserve">
<style type="text/css">
	.st0{fill:#FFFFFF;}
	.st1{fill:#C80B19;}
</style>
<rect y="0" class="st0" width="85" height="85"/>
<polygon class="st1" points="25.4,85 74,85 66.6,65.8 32.4,65.8 "/>
<polygon class="st1" points="37.7,51.4 61,51.4 49.3,19.7 "/>
<polygon class="st1" points="40.3,0 0,0 0,85 7.1,85 "/>
<polygon class="st1" points="85,65.8 85,0 58.7,0 "/>
<path class="st0" d="M129.8,23.2v12.7h-10.9v24.4c-0.1,2.9,0,5.8,0.3,8.6c0.2,0.8,0.7,1.5,1.4,2c0.8,0.5,1.7,0.8,2.7,0.8
	c2.2-0.2,4.4-0.7,6.4-1.5l1.4,12.5c-4,1.7-8.3,2.5-12.6,2.4c-2.7,0-5.3-0.5-7.8-1.4c-2-0.8-3.8-2.1-5.1-3.8c-1.2-1.9-2-4-2.2-6.3
	c-0.4-3.7-0.6-7.5-0.5-11.3V35.9h-7.3V23.2h7.3V11l16-9.4v21.5H129.8z"/>
<path class="st0" d="M156.4,85h-16.2V23.2h15.1v9c2.6-4.1,4.9-6.9,6.9-8.2c2.1-1.3,4.5-2,7-2c3.8,0,7.5,1.1,10.7,3.1l-5,14.2
	c-2.2-1.6-4.9-2.5-7.6-2.7c-2.1-0.1-4.1,0.6-5.8,1.9c-1.6,1.3-2.8,3.5-3.7,6.8s-1.4,10.2-1.4,20.7V85z"/>
<path class="st0" d="M183.2,52.6c0-5.4,1.4-10.7,3.9-15.4c2.4-4.8,6.3-8.8,11-11.4c4.9-2.6,10.4-4,16-3.9c9.1,0,16.5,3,22.3,8.9
	c5.8,5.9,8.7,13.4,8.7,22.5c0,9.1-2.9,16.7-8.8,22.7s-13.3,9-22.1,9c-5.5,0-10.9-1.3-15.8-3.8c-4.9-2.4-8.9-6.2-11.4-11
	C184.5,65.4,183.2,59.6,183.2,52.6z M199.5,53.5c0,6,1.4,10.6,4.2,13.8c5,5.8,13.7,6.4,19.5,1.4c0.5-0.4,1-0.9,1.4-1.4
	c2.8-3.2,4.2-7.8,4.2-13.9c0-5.9-1.4-10.5-4.2-13.7c-5-5.8-13.7-6.4-19.5-1.4c-0.5,0.4-1,0.9-1.4,1.4
	C200.9,42.9,199.5,47.5,199.5,53.5L199.5,53.5z"/>
<path class="st0" d="M259.3,0h31.2c7,0,12.4,0.5,16.1,1.6c4.9,1.4,9.3,4.1,12.8,7.8c3.7,4,6.4,8.6,8.1,13.8
	c1.9,5.4,2.8,12.1,2.8,20.1c0.1,6.1-0.7,12.3-2.6,18.1c-1.8,5.6-4.9,10.8-9.1,15c-3.4,3.2-7.5,5.5-12,6.8c-3.8,1.2-8.8,1.8-15.1,1.8
	h-32.1V0z M276.3,14.4v56.3h12.8c3.5,0.1,6.9-0.2,10.3-0.8c2.6-0.6,4.9-1.8,6.9-3.5c1.8-1.7,3.3-4.4,4.5-8.2c1.2-3.8,1.7-9,1.7-15.6
	c0-6.6-0.6-11.6-1.7-15.1c-0.9-3.1-2.6-5.9-4.9-8.2c-2.2-2-5-3.4-7.9-4c-2.4-0.5-7.1-0.8-14-0.8L276.3,14.4z"/>
<path class="st0" d="M421,85h-18.6L395,65.7h-33.8l-7,19.3h-18.1l33-85h18L421,85z M389.5,51.4l-11.7-31.6l-11.4,31.6H389.5z"/>
<path class="st0" d="M429.8,85V0h25.6l15.4,58l15.2-58h25.6v85h-15.9V18.1L478.9,85h-16.5l-16.7-66.9V85H429.8z"/>
</svg>
