<?xml version="1.0" encoding="utf-8"?>
<!-- Generator: Adobe Illustrator 23.0.3, SVG Export Plug-In . SVG Version: 6.00 Build 0)  -->
<svg version="1.1" id="Слой_1" xmlns="http://www.w3.org/2000/svg" xmlns:xlink="http://www.w3.org/1999/xlink" x="0px" y="0px"
	 viewBox="0 0 512 512" style="enable-background:new 0 0 512 512;" xml:space="preserve">
<style type="text/css">
	.st0{fill:#999999;}
	.st1{enable-background:new    ;}
</style>
<g>
	<g>
		<path class="st0" d="M426.9,150.8L309.6,28.9c-1.7-1.7-4-2.7-6.4-2.7H128.3c-19.6,0-35.5,15.9-35.5,35.4v389.8
			c0,19.5,15.9,35.4,35.5,35.4h265.6c19.6,0,35.5-15.9,35.5-35.4V157C429.4,154.7,428.5,152.5,426.9,150.8z M305.4,50.1l96.3,100.1
			h-96.3L305.4,50.1L305.4,50.1z M411.7,451.4c0,9.8-8,17.7-17.8,17.7H128.3c-9.8,0-17.8-7.9-17.8-17.7V61.6c0-9.8,8-17.7,17.8-17.7
			h159.4V159c0,4.9,4,8.9,8.9,8.9h115.1V451.4z"/>
	</g>
</g>
<g class="st1">
	<path class="st0" d="M203,231.7c-7.1,0-12.6,2.6-16.6,7.8c-4,5.2-6.1,12.4-6.1,21.6c0,9.6,1.9,16.9,5.8,21.9
		c3.9,4.9,9.5,7.4,16.9,7.4c3.2,0,6.3-0.3,9.2-1c3-0.7,6.1-1.5,9.3-2.6v11c-5.9,2.3-12.6,3.5-20,3.5c-11,0-19.4-3.5-25.3-10.4
		c-5.9-7-8.8-16.9-8.8-29.9c0-8.2,1.4-15.3,4.3-21.4c2.9-6.1,7-10.8,12.4-14.1c5.4-3.3,11.8-4.9,19.1-4.9c7.7,0,14.8,1.7,21.3,5
		l-4.4,10.7c-2.5-1.3-5.2-2.4-8-3.3C209,232.2,206.1,231.7,203,231.7z"/>
	<path class="st0" d="M285,279c0,7-2.4,12.5-7.2,16.4c-4.8,4-11.5,6-20,6c-8.5,0-15.4-1.4-20.8-4.1v-12.1c3.4,1.7,7.1,3,10.9,4
		c3.9,1,7.4,1.5,10.8,1.5c4.9,0,8.4-1,10.8-2.9s3.5-4.5,3.5-7.8c0-2.9-1.1-5.4-3.2-7.5c-2.1-2-6.5-4.5-13.1-7.3
		c-6.8-2.9-11.7-6.2-14.5-9.9c-2.8-3.7-4.2-8.2-4.2-13.4c0-6.6,2.2-11.7,6.7-15.5c4.4-3.8,10.4-5.6,17.9-5.6
		c7.2,0,14.3,1.6,21.5,4.9l-3.9,10.5c-6.7-2.9-12.6-4.4-17.9-4.4c-4,0-7,0.9-9,2.7c-2.1,1.8-3.1,4.2-3.1,7.2c0,2,0.4,3.8,1.2,5.2
		c0.8,1.5,2.2,2.8,4.1,4.1c1.9,1.3,5.3,3,10.2,5.1c5.5,2.4,9.6,4.6,12.1,6.7c2.6,2.1,4.4,4.4,5.6,7C284.4,272.4,285,275.5,285,279z"
		/>
	<path class="st0" d="M346.3,221.8H359l-26.3,78.5h-12.9l-26.2-78.5h12.6l15.7,48.8c0.8,2.3,1.7,5.3,2.6,9s1.5,6.4,1.8,8.2
		c0.4-2.7,1.1-5.9,2.1-9.5c0.9-3.6,1.7-6.2,2.3-7.9L346.3,221.8z"/>
</g>
<rect x="157.9" y="339.3" class="st0" width="206.1" height="14.2"/>
<rect x="157.9" y="375.5" class="st0" width="206.1" height="14.2"/>
<rect x="157.9" y="411.6" class="st0" width="206.1" height="14.2"/>
</svg>
