<?xml version="1.0" encoding="utf-8"?>
<!-- Generator: Adobe Illustrator 23.0.3, SVG Export Plug-In . SVG Version: 6.00 Build 0)  -->
<svg version="1.1" id="Слой_1" xmlns="http://www.w3.org/2000/svg" xmlns:xlink="http://www.w3.org/1999/xlink" x="0px" y="0px"
	 viewBox="0 0 512 512" style="enable-background:new 0 0 512 512;" xml:space="preserve">
<style type="text/css">
	.st0{fill:#999999;}
	.st1{enable-background:new    ;}
</style>
<g>
	<g>
		<path class="st0" d="M426.9,150.8L309.6,28.9c-1.7-1.7-4-2.7-6.4-2.7H128.3c-19.6,0-35.5,15.9-35.5,35.4v389.8
			c0,19.5,15.9,35.4,35.5,35.4h265.6c19.6,0,35.5-15.9,35.5-35.4V157C429.4,154.7,428.5,152.5,426.9,150.8z M305.4,50.1l96.3,100.1
			h-96.3L305.4,50.1L305.4,50.1z M411.7,451.4c0,9.8-8,17.7-17.8,17.7H128.3c-9.8,0-17.8-7.9-17.8-17.7V61.6c0-9.8,8-17.7,17.8-17.7
			h159.4V159c0,4.9,4,8.9,8.9,8.9h115.1V451.4z"/>
	</g>
</g>
<g class="st1">
	<path class="st0" d="M189.9,260.4c0,13-3.4,22.9-10.3,29.7s-16.8,10.3-29.7,10.3h-21v-78.5h23.2c11.9,0,21.2,3.4,27.9,10.1
		C186.6,238.7,189.9,248.1,189.9,260.4z M177,260.8c0-18.8-8.4-28.2-25.2-28.2h-10.6v57h8.7C167.9,289.6,177,280,177,260.8z"/>
	<path class="st0" d="M269.7,261c0,12.8-3.1,22.7-9.2,29.8c-6.1,7.1-14.8,10.6-26,10.6c-11.3,0-20-3.5-26.1-10.6
		c-6.1-7-9.1-17-9.1-30c0-13,3.1-22.9,9.2-29.9c6.1-6.9,14.8-10.4,26.2-10.4c11.2,0,19.8,3.5,25.9,10.6
		C266.7,238.2,269.7,248.2,269.7,261z M212.4,261c0,9.7,1.9,17,5.6,22c3.7,5,9.3,7.5,16.6,7.5c7.3,0,12.8-2.5,16.5-7.4
		c3.7-4.9,5.6-12.3,5.6-22.1c0-9.6-1.8-16.9-5.5-21.9c-3.7-5-9.2-7.5-16.5-7.5c-7.4,0-12.9,2.5-16.7,7.5
		C214.3,244.1,212.4,251.4,212.4,261z"/>
	<path class="st0" d="M314.8,231.7c-7.1,0-12.6,2.6-16.6,7.8c-4,5.2-6.1,12.4-6.1,21.6c0,9.6,1.9,16.9,5.8,21.9s9.5,7.4,16.9,7.4
		c3.2,0,6.3-0.3,9.2-1c3-0.7,6.1-1.5,9.3-2.6v11c-5.9,2.3-12.6,3.5-20,3.5c-11,0-19.4-3.5-25.3-10.4c-5.9-7-8.8-16.9-8.8-29.9
		c0-8.2,1.4-15.3,4.3-21.4s7-10.8,12.4-14.1c5.4-3.3,11.8-4.9,19-4.9c7.7,0,14.8,1.7,21.3,5l-4.4,10.7c-2.5-1.3-5.2-2.4-8-3.3
		C320.9,232.2,318,231.7,314.8,231.7z"/>
	<path class="st0" d="M401.9,300.4h-14.1L369,268.2L350,300.4h-13.1l24.9-40.7l-23.3-37.8h13.7l17.4,29.7l17.4-29.7h13.2l-23.5,38
		L401.9,300.4z"/>
</g>
<rect x="157.9" y="339.3" class="st0" width="206.1" height="14.2"/>
<rect x="157.9" y="375.5" class="st0" width="206.1" height="14.2"/>
<rect x="157.9" y="411.6" class="st0" width="206.1" height="14.2"/>
</svg>
