<?xml version="1.0" encoding="utf-8"?>
<!-- Generator: Adobe Illustrator 23.0.3, SVG Export Plug-In . SVG Version: 6.00 Build 0)  -->
<svg version="1.1" id="Слой_1" xmlns="http://www.w3.org/2000/svg" xmlns:xlink="http://www.w3.org/1999/xlink" x="0px" y="0px"
	 viewBox="0 0 512 512" style="enable-background:new 0 0 512 512;" xml:space="preserve">
<style type="text/css">
	.st0{fill:#999999;}
	.st1{enable-background:new    ;}
</style>
<g>
	<g>
		<path class="st0" d="M426.9,150.8L309.6,28.9c-1.7-1.7-4-2.7-6.4-2.7H128.3c-19.6,0-35.5,15.9-35.5,35.4v389.8
			c0,19.5,15.9,35.4,35.5,35.4h265.6c19.6,0,35.5-15.9,35.5-35.4V157C429.4,154.7,428.5,152.5,426.9,150.8z M305.4,50.1l96.3,100.1
			h-96.3L305.4,50.1L305.4,50.1z M411.7,451.4c0,9.8-8,17.7-17.8,17.7H128.3c-9.8,0-17.8-7.9-17.8-17.7V61.6c0-9.8,8-17.7,17.8-17.7
			h159.4V159c0,4.9,4,8.9,8.9,8.9h115.1V451.4z"/>
	</g>
</g>
<g class="st1">
	<path class="st0" d="M171.4,300.4h-12.7v-78.5H203v10.8h-31.6v24.5H201v10.9h-29.6V300.4z"/>
	<path class="st0" d="M220.2,300.4v-78.5H233v78.5H220.2z"/>
	<path class="st0" d="M256.7,300.4v-78.5h12.8v67.5h33.2v11H256.7z"/>
	<path class="st0" d="M363.7,300.4h-44.4v-78.5h44.4v10.8h-31.6v21.4h29.6v10.7h-29.6v24.7h31.6V300.4z"/>
</g>
<rect x="157.7" y="339.3" class="st0" width="206.1" height="14.2"/>
<rect x="157.7" y="375.5" class="st0" width="206.1" height="14.2"/>
<rect x="157.7" y="411.6" class="st0" width="206.1" height="14.2"/>
</svg>
