<?xml version="1.0" encoding="utf-8"?>
<!-- Generator: Adobe Illustrator 23.0.3, SVG Export Plug-In . SVG Version: 6.00 Build 0)  -->
<svg version="1.1" id="Слой_1" xmlns="http://www.w3.org/2000/svg" xmlns:xlink="http://www.w3.org/1999/xlink" x="0px" y="0px"
	 viewBox="0 0 512 512" style="enable-background:new 0 0 512 512;" xml:space="preserve">
<style type="text/css">
	.st0{fill:#999999;}
	.st1{enable-background:new    ;}
</style>
<g>
	<g>
		<path class="st0" d="M426.9,150.8L309.6,28.9c-1.7-1.7-4-2.7-6.4-2.7H128.3c-19.6,0-35.5,15.9-35.5,35.4v389.8
			c0,19.5,15.9,35.4,35.5,35.4h265.6c19.6,0,35.5-15.9,35.5-35.4V157C429.4,154.7,428.5,152.5,426.9,150.8z M305.4,50.1l96.3,100.1
			h-96.3L305.4,50.1L305.4,50.1z M411.7,451.4c0,9.8-8,17.7-17.8,17.7H128.3c-9.8,0-17.8-7.9-17.8-17.7V61.6c0-9.8,8-17.7,17.8-17.7
			h159.4V159c0,4.9,4,8.9,8.9,8.9h115.1V451.4z"/>
	</g>
</g>
<g class="st1">
	<path class="st0" d="M174,269v31.4h-12.1v-78.5h20.9c9.6,0,16.6,1.9,21.2,5.7c4.6,3.8,6.9,9.5,6.9,17.2c0,9.8-4.8,16.7-14.4,20.9
		l20.9,34.8h-13.8L186,269H174z M174,258.4h8.4c5.6,0,9.7-1.1,12.3-3.3c2.5-2.2,3.8-5.5,3.8-9.9c0-4.4-1.4-7.6-4.1-9.6
		c-2.7-1.9-6.9-2.9-12.4-2.9h-8V258.4z"/>
	<path class="st0" d="M278.1,300.4l-7.4-21.8h-28.3l-7.2,21.8h-12.8l27.7-78.8h13.2l27.7,78.8H278.1z M267.5,267.5l-6.9-21.4
		c-0.5-1.4-1.2-3.7-2.1-6.8c-0.9-3.1-1.5-5.3-1.8-6.8c-0.9,4.4-2.2,9.2-4,14.4l-6.7,20.5H267.5z"/>
	<path class="st0" d="M316.8,269v31.4h-12.1v-78.5h20.9c9.6,0,16.6,1.9,21.2,5.7c4.6,3.8,6.9,9.5,6.9,17.2c0,9.8-4.8,16.7-14.4,20.9
		l20.9,34.8h-13.8L328.7,269H316.8z M316.8,258.4h8.4c5.6,0,9.7-1.1,12.3-3.3c2.5-2.2,3.8-5.5,3.8-9.9c0-4.4-1.4-7.6-4.1-9.6
		c-2.7-1.9-6.9-2.9-12.4-2.9h-8V258.4z"/>
</g>
<rect x="157.9" y="339.3" class="st0" width="206.1" height="14.2"/>
<rect x="157.9" y="375.5" class="st0" width="206.1" height="14.2"/>
<rect x="157.9" y="411.6" class="st0" width="206.1" height="14.2"/>
</svg>
