<?xml version="1.0" encoding="utf-8"?>
<!-- Generator: Adobe Illustrator 23.0.3, SVG Export Plug-In . SVG Version: 6.00 Build 0)  -->
<svg version="1.1" id="Слой_1" xmlns="http://www.w3.org/2000/svg" xmlns:xlink="http://www.w3.org/1999/xlink" x="0px" y="0px"
	 viewBox="0 0 512 512" style="enable-background:new 0 0 512 512;" xml:space="preserve">
<style type="text/css">
	.st0{fill:#999999;}
	.st1{enable-background:new    ;}
</style>
<g>
	<g>
		<path class="st0" d="M426.9,150.8L309.6,28.9c-1.7-1.7-4-2.7-6.4-2.7H128.3c-19.6,0-35.5,15.9-35.5,35.4v389.8
			c0,19.5,15.9,35.4,35.5,35.4h265.6c19.6,0,35.5-15.9,35.5-35.4V157C429.4,154.7,428.5,152.5,426.9,150.8z M305.4,50.1l96.3,100.1
			h-96.3L305.4,50.1L305.4,50.1z M411.7,451.4c0,9.8-8,17.7-17.8,17.7H128.3c-9.8,0-17.8-7.9-17.8-17.7V61.6c0-9.8,8-17.7,17.8-17.7
			h159.4V159c0,4.9,4,8.9,8.9,8.9h115.1V451.4z"/>
	</g>
</g>
<g class="st1">
	<path class="st0" d="M152.9,300.4h-9.2v-51.6H127v-8.4h42.5v8.4h-16.6V300.4z"/>
	<path class="st0" d="M213.3,300.4l-5.6-16.7H186l-5.5,16.7h-9.7l21.2-60.2H202l21.2,60.2H213.3z M205.2,275.3l-5.3-16.3
		c-0.4-1.1-0.9-2.8-1.6-5.2c-0.7-2.4-1.2-4.1-1.4-5.2c-0.7,3.4-1.7,7-3.1,11l-5.1,15.6H205.2z"/>
	<path class="st0" d="M239.8,276.4v24h-9.2v-60h16c7.3,0,12.7,1.4,16.2,4.3c3.5,2.9,5.3,7.3,5.3,13.1c0,7.5-3.7,12.8-11,16l16,26.5
		h-10.5l-13.5-24H239.8z M239.8,268.3h6.4c4.3,0,7.4-0.8,9.4-2.5s2.9-4.2,2.9-7.5c0-3.4-1-5.8-3.1-7.3c-2.1-1.5-5.2-2.2-9.4-2.2
		h-6.1V268.3z"/>
	<path class="st0" d="M278.9,295.2c0-2,0.5-3.5,1.5-4.6c1-1.1,2.4-1.6,4.3-1.6c1.9,0,3.3,0.6,4.3,1.7c1,1.1,1.5,2.6,1.5,4.5
		c0,1.9-0.5,3.5-1.5,4.6c-1,1.1-2.4,1.7-4.3,1.7c-1.9,0-3.3-0.6-4.3-1.7C279.4,298.8,278.9,297.2,278.9,295.2z"/>
	<path class="st0" d="M326.1,267.8h20.8v30.1c-3.4,1.2-6.7,2-9.8,2.5s-6.5,0.7-10.2,0.7c-8.6,0-15.2-2.7-19.8-8.1s-7-13-7-22.7
		c0-9.7,2.6-17.2,7.9-22.7s12.4-8.2,21.6-8.2c5.9,0,11.5,1.2,16.8,3.6l-3.3,8.2c-4.6-2.2-9.2-3.4-13.8-3.4c-6,0-10.8,2-14.3,6
		c-3.5,4-5.3,9.5-5.3,16.5c0,7.3,1.6,12.9,4.7,16.7s7.7,5.7,13.6,5.7c3,0,6.2-0.4,9.6-1.2v-15.5h-11.7V267.8z"/>
	<path class="st0" d="M396,300.4h-40.5v-6.8l28.5-44.7h-27.7v-8.4h38.9v6.9L366.6,292H396V300.4z"/>
</g>
<rect x="157.9" y="339.3" class="st0" width="206.1" height="14.2"/>
<rect x="157.9" y="375.5" class="st0" width="206.1" height="14.2"/>
<rect x="157.9" y="411.6" class="st0" width="206.1" height="14.2"/>
</svg>
