<?xml version="1.0" encoding="utf-8"?>
<!-- Generator: Adobe Illustrator 23.0.3, SVG Export Plug-In . SVG Version: 6.00 Build 0)  -->
<svg version="1.1" id="Слой_1" xmlns="http://www.w3.org/2000/svg" xmlns:xlink="http://www.w3.org/1999/xlink" x="0px" y="0px"
	 viewBox="0 0 512 512" style="enable-background:new 0 0 512 512;" xml:space="preserve">
<style type="text/css">
	.st0{fill:#999999;}
	.st1{enable-background:new    ;}
</style>
<g>
	<g>
		<path class="st0" d="M426.9,150.8L309.6,28.9c-1.7-1.7-4-2.7-6.4-2.7H128.3c-19.6,0-35.5,15.9-35.5,35.4v389.8
			c0,19.5,15.9,35.4,35.5,35.4h265.6c19.6,0,35.5-15.9,35.5-35.4V157C429.4,154.7,428.5,152.5,426.9,150.8z M305.4,50.1l96.3,100.1
			h-96.3L305.4,50.1L305.4,50.1z M411.7,451.4c0,9.8-8,17.7-17.8,17.7H128.3c-9.8,0-17.8-7.9-17.8-17.7V61.6c0-9.8,8-17.7,17.8-17.7
			h159.4V159c0,4.9,4,8.9,8.9,8.9h115.1V451.4z"/>
	</g>
</g>
<g class="st1">
	<path class="st0" d="M234.5,300.4h-53.7v-8.9l37.8-58.6h-36.8v-11h51.7v9l-38,58.5h39V300.4z"/>
	<path class="st0" d="M251.8,300.4v-78.5h12.3v78.5H251.8z"/>
	<path class="st0" d="M337.6,245.6c0,8.2-2.6,14.5-7.7,18.9c-5.1,4.4-12.4,6.6-21.9,6.6h-7.8v29.4h-12.3v-78.5h21.6
		c9.4,0,16.4,2,21.1,6C335.3,231.9,337.6,237.8,337.6,245.6z M300.2,260.2h6.5c6.3,0,10.9-1.1,13.9-3.4c2.9-2.3,4.4-5.9,4.4-10.7
		c0-4.5-1.3-7.9-4-10.1c-2.6-2.2-6.7-3.3-12.3-3.3h-8.5V260.2z"/>
</g>
<rect x="157.9" y="339.3" class="st0" width="206.1" height="14.2"/>
<rect x="157.9" y="375.5" class="st0" width="206.1" height="14.2"/>
<rect x="157.9" y="411.6" class="st0" width="206.1" height="14.2"/>
</svg>
